<?xml version="1.0" encoding="UTF-8"?>
<svg id="Calque_1" data-name="Calque 1" xmlns="http://www.w3.org/2000/svg" viewBox="0 0 783.2 627.46">
  <defs>
    <style>
      .cls-1 {
        fill: #fff;
      }

      .cls-1, .cls-2 {
        stroke-width: 0px;
      }

      .cls-2 {
        fill: #f20000;
      }
    </style>
  </defs>
  <g>
    <path class="cls-1" d="m724.24,174.18c-26.44,5.32-52.74,10.6-80.51,16.19-3.22-41.48-22.18-75.56-61.9-95.98-22.22-11.42-46.02-15.74-70.36-10.52-51.56,11.06-84.93,50.98-89.76,93.75-3.68,32.61,3.27,62.96,25.98,88.53,22.05,24.82,50.02,36.63,81.67,38.52-5.64,27.55-11.08,54.14-16.57,80.91-86.68-4.13-169.13-80.98-174.36-179.41C332.46,93.53,415.41,8.31,516.54.59c113.77-8.68,202.18,79.28,207.7,173.58Z"/>
    <path class="cls-1" d="m724.55,194.22c2.4,103.84-87.91,196.41-191.67,191.97-9.5-87.13,78.57-197.02,191.67-191.97Z"/>
  </g>
  <g>
    <path class="cls-1" d="m279.02,625.55h-37.3c0-52.53-14.46-62.81-41.49-63.19v63.19h-37.3v-170.92h37.3v70.8c6.85,0,34.26-2.29,34.26-28.93h36.92c0,18.27-6.47,34.64-19.03,46.44,22.84,21.32,26.65,52.91,26.65,82.6Z"/>
    <path class="cls-1" d="m425.19,455.4v106.58c0,38.29-33.3,68.91-71.86,65.16-32.18-3.12-57.62-29.94-59.02-62.24-1.63-37.49,28.28-68.4,65.41-68.4,10.28,0,19.79,2.28,28.17,6.47v-47.58h37.3Zm-37.3,106.58c0-15.96-13.14-28.74-29.23-28.15-14.53.53-26.55,12.55-27.09,27.08-.59,16.1,12.19,29.24,28.15,29.24s28.17-12.18,28.17-28.17Z"/>
    <path class="cls-1" d="m571.35,496.51v37.68c0,27.41-22.46,49.87-49.87,49.87h-33.5c4.95,3.81,11.04,6.09,17.89,6.09h32.74v37.3h-32.74c-36.54,0-65.47-28.93-65.47-65.47s29.31-65.47,65.47-65.47h65.47Zm-65.47,37.3c-7.99,0-14.85,3.05-20.18,8.38-1.52,1.14-2.66,3.04-3.81,4.57h39.21c7.23,0,12.94-5.71,12.94-12.94h-28.17Z"/>
    <path class="cls-1" d="m709.91,496.51v25.5c0,20.94-6.47,45.3-17.51,66.61-9.14,17.51-24.36,38.45-44.16,38.83-8.76,0-17.13-4.19-25.5-12.56-17.51-17.51-35.78-57.1-35.78-92.88v-25.5h37.3v25.5c0,20.94,9.9,49.86,23.98,65.85,14.08-14.09,24.36-46.44,24.36-65.85v-25.5h37.3Z"/>
    <g>
      <path class="cls-1" d="m69.45,588.25s-2.98,29.47,16.77,37.3h61.47v-37.3h-78.24Zm17.73-62.82s3.59,1.63,8.37,4.61c9.37,5.81,23.32,16.79,23.97,30.84v-35.45h-32.34Z"/>
      <rect class="cls-1" x="95.55" y="462.64" width="52.14" height="36.91"/>
      <path class="cls-1" d="m95.55,462.64v36.91h-26.58c-17.25-31.78,26.58-36.91,26.58-36.91Z"/>
    </g>
    <g>
      <path class="cls-2" d="m87.18,525.44s3.59,1.63,8.37,4.61v32.69h-47.2c-6.48.76-11.05,6.09-11.05,12.57,0,7.22,5.72,12.94,12.94,12.94h19.21s-2.98,29.47,16.77,37.3h-35.98c-27.78,0-50.25-22.47-50.25-50.25,0-11.81,4.2-22.84,11.05-31.21-6.85-8.77-11.05-19.42-11.05-31.61,0-27.41,22.47-49.85,50.25-49.85h45.31s-43.83,5.13-26.58,36.91h-18.73c-7.22,0-12.94,5.72-12.94,12.94s4.57,12.18,11.05,12.94h38.83Z"/>
      <path class="cls-2" d="m119.52,560.89v1.85h-23.97v-32.69c9.37,5.81,23.32,16.79,23.97,30.84Z"/>
    </g>
    <circle class="cls-2" cx="752.84" cy="597.1" r="30.36"/>
  </g>
</svg>